<svg width="942" height="289" viewBox="0 0 942 289" fill="none" xmlns="http://www.w3.org/2000/svg">
<rect width="942" height="289" fill="#1E1E1E"/>
<path d="M295 55.5H298.5H373.5H377V12.5H295V55.5Z" fill="#2DE923"/>
<path d="M401.5 3.5L388 20.5V56.75H476.5V20.5L463.5 3.5H401.5Z" fill="#2DE923"/>
<path d="M598.5 170H605.5V167.5V93V90H598.5V93V167.5V170Z" fill="#2DE923"/>
<path d="M381.5 288.5V268.5H291.5V288.5H381.5Z" fill="#2DE923"/>
<path d="M250 175H257V91H250V175Z" fill="#2DE923"/>
<path d="M287 93V106.5H258V155.5H287V167.5H298.5V268H377V167.5H492V287H537.5V167.5H550V287H597V167.5H598.5V93H597V0.5H550V93H537.5V0.5H492V93H476.5V56.75H388V93H373.5V55.5H298.5V93H287Z" fill="#656F7D"/>
<path d="M607.5 59V93H605.5V167.5H607.5V198H721.5H795.5H806.5H881.5H892.5V188.5H941.5V68.5H892.5V59H878.5V47.5H840V59H607.5Z" fill="#656F7D"/>
<path d="M881.5 237.5V198H806.5V237.5H881.5Z" fill="black"/>
<path d="M795.5 237.5V198H721.5V237.5H795.5Z" fill="black"/>
<path d="M22 151.5H46V144.5H167.5V131H46V125.5H22V131H15.5V144.5H22V151.5Z" fill="#656F7D"/>
<path d="M79 176.5H99L102 179V183H110V190.5H102V195.5L100 198.5H79V176.5Z" fill="#656F7D"/>
<path d="M84 80H100L103 84V87H110V94H103V99.5L100 104H84V80Z" fill="#656F7D"/>
<path d="M163 65.5H145V108.5H162.5V67H163V65.5Z" fill="#656F7D"/>
<path d="M145 108.5V65.5H125.5V108.5H145Z" fill="#656F7D"/>
<path d="M38.5 109.5V116H167V67H163H162.5V108.5V109.5H38.5Z" fill="#656F7D"/>
<path d="M162.5 212.5H167V162H38.5V169H162.5V212.5Z" fill="#656F7D"/>
<path d="M145.5 212.5V169.5H126.5V212.5H145.5Z" fill="#656F7D"/>
<path d="M22 151.5H46V144.5H167.5V131H46V125.5H22V131H15.5V144.5H22V151.5Z" fill="#010101"/>
<path d="M79 176.5H99L102 179V183H110V190.5H102V195.5L100 198.5H79V176.5Z" fill="#010101"/>
<path d="M84 80H100L103 84V87H110V94H103V99.5L100 104H84V80Z" fill="#010101"/>
<path d="M163 65.5H145V108.5H162.5V67H163V65.5Z" fill="#656F7D"/>
<path d="M145 108.5V65.5H125.5V108.5H145Z" fill="#656F7D"/>
<path d="M38.5 109.5V116H167V67H163H162.5V108.5V109.5H38.5Z" fill="#010101"/>
<path d="M162.5 212.5H167V162H38.5V169H162.5V212.5Z" fill="#010101"/>
<path d="M145.5 212.5V169.5H126.5V212.5H145.5Z" fill="#656F7D"/>
<path fill-rule="evenodd" clip-rule="evenodd" d="M249.5 65.5H163V67H167V116H38.5V109.5H162.5V108.5H145H125.5V65.5H123.5L37 94V113H0.5V161H37V187L123.5 215.5H249.5V65.5ZM100 80H84V104H100L103 99.5V94H110V87H103V84L100 80ZM99 176.5H79V198.5H100L102 195.5V190.5H110V183H102V179L99 176.5ZM145.5 169.5V212.5H162.5V169H38.5V162H167V212.5H162.5H145.5H126.5V169.5H145.5ZM46 151.5H22V144.5H15.5V131H22V125.5H46V131H167.5V144.5H46V151.5Z" fill="#656F7D"/>
<path d="M249.5 155.5L250 106.5M257 106.5V155.5M298.5 55.5V93H287V106.5H258V155.5H287V167.5H298.5V268H377V167.5H492V287H537.5V167.5H550V287H597V167.5H598.5M298.5 55.5H295V12.5H377V55.5H373.5M298.5 55.5H373.5M373.5 55.5V93H388V56.75M840 59H607.5V93H605.5M840 59V47.5H878.5V59M840 59H878.5M878.5 59H892.5V68.5M892.5 68.5H941.5V188.5H892.5M892.5 68.5V188.5M892.5 188.5V198H881.5M881.5 198V237.5H806.5V198M881.5 198H806.5M806.5 198H795.5M795.5 198V237.5H721.5V198M795.5 198H721.5M721.5 198H607.5V167.5H605.5M388 56.75V20.5L401.5 3.5H463.5L476.5 20.5V56.75M388 56.75H476.5M476.5 56.75V93H492V0.5H537.5V93H550V0.5H597V93H598.5M598.5 167.5V93M598.5 167.5V170H605.5V167.5M598.5 167.5H605.5M598.5 93V90H605.5V93M598.5 93H605.5M605.5 93V167.5M163 65.5H249.5V215.5H123.5L37 187V161H0.5V113H37V94L123.5 65.5H125.5M163 65.5H145M163 65.5V67M145 108.5V65.5M145 108.5H125.5V65.5M145 108.5H162.5M145 65.5H125.5M145.5 212.5V169.5H126.5V212.5H145.5ZM145.5 212.5H162.5M162.5 212.5V169H38.5V162H167V212.5H162.5ZM163 67H167V116H38.5V109.5H162.5V108.5M163 67H162.5V108.5M381.5 288.5V268.5H291.5V288.5H381.5ZM250 175H257V91H250V175ZM84 80H100L103 84V87H110V94H103V99.5L100 104H84V80ZM79 176.5H99L102 179V183H110V190.5H102V195.5L100 198.5H79V176.5ZM22 151.5H46V144.5H167.5V131H46V125.5H22V131H15.5V144.5H22V151.5Z" stroke="#010101"/>
</svg>
