<svg width="1506" height="956" viewBox="0 0 1506 956" fill="none" xmlns="http://www.w3.org/2000/svg">
<path d="M1260.5 448.5H1288.5V498H1260.5V448.5Z" fill="#656F7D"/>
<path d="M1290 498H1316.5V448.5H1290V498Z" fill="#666D7D"/>
<path d="M1244 448.5V498H1259.5V448.5H1244Z" fill="#656F7D"/>
<path d="M1244 448.5H1233V498H1244V448.5Z" fill="#656F7D"/>
<path d="M729.5 172L697 135V0H562V135L527 172V222H507V162H433V222H409V407V538V729H433V791H507V729H527V777L562 813V956H697V813L729.5 777V729H761V791H838V729H896L890 222H838V162H761V222H729.5V172Z" fill="#656F7D"/>
<path d="M409 407H332L306 433V512L332 538H409V407Z" fill="#219D23"/>
<path d="M801 294V658H527V294H801Z" fill="black"/>
<path d="M408 302H252V272H408V302Z" fill="#555C67"/>
<path d="M244.5 275.5V297.5H0.5V275.5H244.5Z" fill="#555C67"/>
<path d="M894 511.5H968.5V542H1106V511.5H1120V542H1208V511.5H1218V497.5H1232V447.5H1218V435H1208V398.75V362.5L1193 344.5H1131L1120 362.5V398.75V435H1106V398H1030V403.5H968.5V436.5H894V511.5Z" fill="#656F7D"/>
<path d="M1432 436V509C1434.83 510.5 1442 514.1 1448 516.5C1454 518.9 1467.5 519 1481 513.5C1491 507.833 1504.2 495.9 1505 481.5C1505.8 467.1 1504.67 460.167 1504 458.5C1503.33 456 1501 448.036 1493.5 440C1487.9 434 1477.33 430.667 1474 429C1462.5 426 1458.4 427.4 1444 429L1432 436Z" fill="#666D7D"/>
<path d="M1321.5 436V509H1432V436H1321.5Z" fill="#666D7D"/>
<path d="M1476 473C1476 479.075 1470.4 484 1463.5 484C1456.6 484 1451 479.075 1451 473C1451 466.925 1456.6 462 1463.5 462C1470.4 462 1476 466.925 1476 473Z" fill="#E53232"/>
<path d="M407.5 683H251.5V653H407.5V683Z" fill="#656F7D"/>
<path d="M244 656.5V678.5H0V656.5H244Z" fill="#656F7D"/>
</svg>
