<svg xmlns="http://www.w3.org/2000/svg" viewBox="0 0 4096 4096" role="img" aria-label="Perseus cargo deck scaffold">
  <defs>
    <linearGradient id="deckFill" x1="0" y1="0" x2="0" y2="1">
      <stop offset="0%" stop-color="#102433" />
      <stop offset="100%" stop-color="#0a141f" />
    </linearGradient>
  </defs>
  <rect width="4096" height="4096" fill="transparent" />
  <path d="M2048 280 C3000 280 3620 1220 3540 2180 C3460 3140 2940 3720 2048 3770 C1150 3720 636 3140 556 2180 C476 1220 1096 280 2048 280Z" fill="url(#deckFill)" stroke="#2f6b80" stroke-width="36" />
  <path d="M1200 3060 L2896 3060 L2896 3320 L1200 3320Z" fill="#173447" stroke="#2f6b80" stroke-width="18" />
  <path d="M1350 2560 L2746 2560 L2746 2940 L1350 2940Z" fill="#1a3d52" stroke="#2f6b80" stroke-width="18" />
  <path d="M1700 980 L2396 980 L2396 1560 L1700 1560Z" fill="#173447" stroke="#2f6b80" stroke-width="18" />
  <path d="M1948 1560 L2148 1560 L2148 3060 L1948 3060Z" fill="#1f4a61" stroke="#2f6b80" stroke-width="12" />
</svg>