<svg width="2063" height="694" viewBox="0 0 2063 694" fill="none" xmlns="http://www.w3.org/2000/svg">
<path d="M1471.37 359.5H1445.87V404.5H1471.37V359.5Z" fill="#656F7D"/>
<path d="M1498.37 359.5H1472.37V405L1498.37 404.5V359.5Z" fill="#656F7D"/>
<path d="M1499.37 359.5H1512.87V348.5H1639.87V265.5H1643.87V177.5H1641.87V194H1574.87V174H1559.87V227H1505.37V174H1488.37V194H1435.37V156H1420.87V170H1378.37V156H1366.37V191.5H1323.37V156H1311.87V191.5H1269.37L1268.87 156H1258.87V191.5H1216.37V156H1208.37V106H1216.37V70H1258.87V105.5H1268.87V70H1311.87V105.5H1323.37V70H1366.37V105.5H1378.37V90.5H1420.87V105.5H1435.37V56.5H1448.37V0.5H1563.37V56.5H1577.37V0.5H1689.87V55H1708.37V64.5H1776.87V172.5H1708.37L1709.87 265.5H1717.87V348.5H1737.37V415.5H1717.87V497.5H1709.87V558.5H1649.37V497.5H1639.87V415.5H1512.87V405H1499.37V359.5Z" fill="#656F7D"/>
<path fill-rule="evenodd" clip-rule="evenodd" d="M296.368 468V423H326.368V441.5H431.368L435.624 446.5L440.868 441.5L457.368 437.5L485.368 464L473.368 480L482.868 486.5H547.368V419.5H580.368V500H623.368V419.5H695.868V353.5H623.368V273.5H580.368V353.5H547.368V289H482.868L473.368 297.5L485.368 311L457.368 339.5H440.868L432.868 333L429.868 336H326.368V356.5H296.368V311H195.368V362H183.868V356.5H96.8676L87.3676 346.5C83.3676 343.667 72.3676 339.5 66.3676 337.5C60.3676 335.5 49.201 336.667 44.3676 337.5C40.0343 339 29.1676 343.3 20.3676 348.5C9.36765 355 4.36814 367.5 1.86814 376.5C-0.631863 385.5 0.868137 393 1.86814 399C2.86814 405 4.36764 412.5 8.36764 421C12.3676 429.5 22.8676 435 29.8676 439C36.8676 443 46.3676 444.5 54.8676 444.5C63.3676 444.5 67.8676 445 77.3676 441.5C84.9676 438.7 93.201 430 96.8676 425H183.868V418H195.368V468H296.368ZM28.3676 382L39.3676 385V380H53.3676V402.5H39.3676V399L28.3676 402.5L20.3676 399V386.5L28.3676 382Z" fill="#656F7D"/>
<path d="M427.368 460L453.368 482L467.368 468L440.868 445L427.368 460Z" fill="#15192B"/>
<path d="M440.868 336L465.868 312L452.368 299.5L427.368 323L440.868 336Z" fill="#15192B"/>
<path fill-rule="evenodd" clip-rule="evenodd" d="M473.368 480L485.368 464L457.368 437.5L440.868 441.5L435.624 446.5L419.368 462L450.868 489L473.368 480ZM453.368 482L427.368 460L440.868 445L467.368 468L453.368 482Z" fill="#838383"/>
<path fill-rule="evenodd" clip-rule="evenodd" d="M419.368 321.5L432.868 333L440.868 339.5H457.368L485.368 311L473.368 297.5L469.368 293H448.368L419.368 321.5ZM465.868 312L440.868 336L427.368 323L452.368 299.5L465.868 312Z" fill="#838383"/>
<path fill-rule="evenodd" clip-rule="evenodd" d="M650.868 506H695.868L696.368 608H643.368V513L650.868 506Z" fill="#656F7D"/>
<path d="M695.868 265L695.868 353.5L695.868 506L696.368 608V674.5H715.368V644L722.868 636.5H760.368V619H800.868V546H779.868L757.868 525V246L779.368 224H799.368V153.5H694.368V165.5L695.868 265Z" fill="#656F7D"/>
<path d="M647.368 265H695.868L694.368 165.5H644.368C641.968 165.5 641.368 166.833 641.368 167.5V261C642.568 264.2 645.868 265 647.368 265Z" fill="#656F7D"/>
<path d="M801.868 547.5V619.5H992.868V547.5H801.868Z" fill="#656F7D"/>
<path d="M1015.87 546H993.868V616H1101.37V515L1099.87 417.5H1166.37V350H1099.87V341.5V266.5V252L1145.37 251V151.5H991.868V224H1015.37L1036.87 245V524.5L1015.87 546Z" fill="#656F7D"/>
<path d="M1103.87 266.5H1099.87V341.5H1103.87V344.5H1164.37V256.5H1103.87V266.5Z" fill="#656F7D"/>
<path d="M1147.87 515H1101.37V616H1147.87V515Z" fill="black"/>
<path d="M800.368 153V224.5H990.368V151.5L800.368 153Z" fill="#656F7D"/>
<path d="M1207.37 536V416.5H1167.37V536H1207.37Z" fill="#656F7D"/>
<path d="M1268.37 350H1207.37H1167.37V416.5H1207.37H1268.37L1441.37 415V404H1444.87V359H1441.37V350H1430.87L1430.06 313.5H1350.37V350H1337.37V315H1268.37V350Z" fill="#656F7D"/>
<path d="M1167.37 230.5V350H1207.37V230.5H1167.37Z" fill="#656F7D"/>
<path d="M1422.37 506H1466.87V599.5L1454.87 623H1434.87L1422.37 599.5V506Z" fill="#656F7D"/>
<path fill-rule="evenodd" clip-rule="evenodd" d="M1614.87 560V476H1522.37V500.5L1509.37 514L1496.87 500.5H1392.37L1381.37 514L1368.87 500.5L1265.87 501.5L1234.87 534V661L1265.87 693.5H1368.87L1381.37 682L1392.37 693.5H1496.87L1509.37 682L1522.37 693.5L1719.37 691.5V560H1614.87ZM1471.87 603.5V505H1483.37V603.5H1471.87ZM1466.87 506H1422.37V599.5L1434.87 623H1454.87L1466.87 599.5V506ZM1414.87 505H1404.37V603.5H1414.87V505ZM1332.37 550H1284.87V629H1332.37V550Z" fill="#656F7D"/>
<path d="M1746.37 347V414H1750.87L1756.87 409V352L1750.87 347H1746.37Z" fill="#1E1E1E"/>
<path fill-rule="evenodd" clip-rule="evenodd" d="M1741.87 281.5V478.5H1758.87H1857.37H1871.87H1974.37H2016.87V435.5V323.5V281.5H1971.37H1871.87H1857.37H1755.87H1741.87ZM1971.37 359.5H1941.87V399.5L1953.37 402H1980.87V362.5L1971.37 359.5Z" fill="#656F7D"/>
<path d="M1755.87 217.5V281.5H1857.37V217.5H1755.87Z" fill="#3E3E3E"/>
<path d="M1857.37 537.5V478.5H1758.87V537.5H1857.37Z" fill="#3E3E3E"/>
<path d="M1871.87 217.5V281.5H1971.37V217.5H1871.87Z" fill="#3E3E3E"/>
<path d="M2062.37 323.5H2016.87V435.5H2062.37V323.5Z" fill="#3E3E3E"/>
<path d="M1974.37 537.5V478.5H1871.87V537.5H1974.37Z" fill="#3E3E3E"/>
<path d="M1956.37 362.5V399.5H1974.37V362.5H1956.37Z" fill="#15192B"/>
<path fill-rule="evenodd" clip-rule="evenodd" d="M1941.87 359.5H1971.37L1980.87 362.5V402H1953.37L1941.87 399.5V359.5ZM1956.37 399.5V362.5H1974.37V399.5H1956.37Z" fill="#838383"/>
<path d="M689.868 448.5H697.368V414.5H689.868V448.5Z" fill="#2DE923"/>
<path d="M689.868 362H697.368V328H689.868V362Z" fill="#2DE923"/>
<path d="M178.368 429H185.368V354H178.368V429Z" fill="#2DE923"/>
<path d="M1099.37 362H1106.87V328H1099.37V362Z" fill="#2DE923"/>
<path d="M1426.62 160H1433.62V103H1426.62V160Z" fill="#2DE923"/>
<path d="M1099.37 445H1106.87V411H1099.37V445Z" fill="#2DE923"/>
<path d="M1651.37 261.5V254H1617.37V261.5H1651.37Z" fill="#2DE923"/>
<path d="M1734.37 261.5V254H1700.37V261.5H1734.37Z" fill="#2DE923"/>
<path d="M1651.37 506.5V499H1617.37V506.5H1651.37Z" fill="#2DE923"/>
<path d="M1734.37 506.5V499H1700.37V506.5H1734.37Z" fill="#2DE923"/>
<path d="M1737.37 356H1744.87V322H1737.37V356Z" fill="#2DE923"/>
<path d="M1737.37 439H1744.87V405H1737.37V439Z" fill="#2DE923"/>
<path d="M1559.87 174H1574.87V194H1641.87V177.5H1643.87V265.5H1639.87V348.5H1512.87V359.5H1499.37V405H1512.87V415.5H1639.87V497.5H1649.37V558.5H1709.87V497.5H1717.87V415.5H1737.37V348.5H1717.87V265.5H1709.87L1708.37 172.5M1559.87 174V227H1505.37V174M1559.87 174H1505.37M1505.37 174H1488.37V194H1435.37V156H1420.87V170H1378.37V156H1366.37V191.5H1323.37V156H1311.87V191.5H1269.37L1268.87 156H1258.87V191.5H1216.37V156H1208.37V106H1216.37V70H1258.87V105.5H1268.87V70H1311.87V105.5H1323.37V70H1366.37V105.5H1378.37V90.5H1420.87V105.5H1435.37V56.5H1448.37M1448.37 56.5V0.5H1563.37V56.5M1448.37 56.5H1563.37M1563.37 56.5H1577.37M1577.37 56.5V0.5H1689.87V55M1577.37 56.5L1689.87 55M1689.87 55H1708.37V64.5M1708.37 64.5H1776.87V172.5H1708.37M1708.37 64.5V172.5M432.868 333L429.868 336H326.368V356.5H296.368V311H195.368V362H183.868V356.5H96.8676L87.3676 346.5C83.3676 343.667 72.3676 339.5 66.3676 337.5C60.3676 335.5 49.201 336.667 44.3676 337.5C40.0343 339 29.1676 343.3 20.3676 348.5C9.36765 355 4.36814 367.5 1.86814 376.5C-0.631863 385.5 0.868137 393 1.86814 399C2.86814 405 4.36764 412.5 8.36764 421C12.3676 429.5 22.8676 435 29.8676 439C36.8676 443 46.3676 444.5 54.8676 444.5C63.3676 444.5 67.8676 445 77.3676 441.5C84.9676 438.7 93.201 430 96.8676 425H183.868V418H195.368V468H296.368V423H326.368V441.5H431.368L435.624 446.5M432.868 333L419.368 321.5L448.368 293H469.368L473.368 297.5M432.868 333L440.868 339.5H457.368L485.368 311L473.368 297.5M473.368 297.5L482.868 289H547.368V353.5H580.368V273.5H623.368V353.5H695.868M695.868 353.5V419.5H623.368V500H580.368V419.5H547.368V486.5H482.868L473.368 480M695.868 353.5L695.868 265M695.868 353.5L695.868 506M473.368 480L485.368 464L457.368 437.5L440.868 441.5L435.624 446.5M473.368 480L450.868 489L419.368 462L435.624 446.5M695.868 265H647.368C645.868 265 642.568 264.2 641.368 261V167.5C641.368 166.833 641.968 165.5 644.368 165.5M695.868 265L694.368 165.5M644.368 165.5C646.768 165.5 678.701 165.5 694.368 165.5M644.368 165.5H694.368M694.368 165.5V153.5H799.368V224H779.368L757.868 246V525L779.868 546H800.868V619H760.368V636.5H722.868L715.368 644V674.5H696.368V608M696.368 608H643.368V513L650.868 506H695.868M696.368 608L695.868 506M1101.37 515L1099.87 417.5H1166.37V350H1099.87V341.5M1101.37 515H1147.87V616H1101.37M1101.37 515V616M1101.37 616H993.868V546H1015.87L1036.87 524.5V245L1015.37 224H991.868V151.5H1145.37V251L1099.87 252V266.5M1099.87 266.5H1103.87V256.5H1164.37V344.5H1103.87V341.5H1099.87M1099.87 266.5V341.5M1167.37 350V230.5H1207.37V350M1167.37 350V416.5M1167.37 350H1207.37M1207.37 350H1268.37V315M1268.37 315H1264.37V275H1340.37V315H1337.37M1268.37 315H1337.37M1337.37 315V350H1350.37V313.5M1207.37 416.5H1268.37L1441.37 415V404H1444.87V359H1441.37V350H1430.87L1430.06 313.5M1207.37 416.5V536H1167.37V416.5M1207.37 416.5H1167.37M1430.06 313.5L1429.37 282.5L1415.87 267H1362.37L1350.37 282.5V313.5M1430.06 313.5H1350.37M1755.87 281.5H1741.87V478.5H1758.87M1755.87 281.5V217.5H1857.37V281.5M1755.87 281.5H1857.37M1857.37 281.5H1871.87M1871.87 281.5V217.5H1971.37V281.5M1871.87 281.5H1971.37M1971.37 281.5H2016.87V323.5M1974.37 478.5H2016.87V435.5M1974.37 478.5V537.5H1871.87V478.5M1974.37 478.5H1871.87M1871.87 478.5H1857.37M1857.37 478.5V537.5H1758.87V478.5M1857.37 478.5H1758.87M2016.87 323.5H2062.37V435.5H2016.87M2016.87 323.5V435.5M1445.87 359.5H1471.37V404.5H1445.87V359.5ZM1472.37 359.5H1498.37V404.5L1472.37 405V359.5ZM39.3676 385L28.3676 382L20.3676 386.5V399L28.3676 402.5L39.3676 399V402.5H53.3676V380H39.3676V385ZM440.868 336L465.868 312L452.368 299.5L427.368 323L440.868 336ZM427.368 460L453.368 482L467.368 468L440.868 445L427.368 460ZM801.868 547.5V619.5H992.868V547.5H801.868ZM1103.87 217.5H1142.37V248H1103.87V217.5ZM800.368 153V224.5H990.368V151.5L800.368 153ZM1614.87 560V476H1522.37V500.5L1509.37 514L1496.87 500.5H1392.37L1381.37 514L1368.87 500.5L1265.87 501.5L1234.87 534V661L1265.87 693.5H1368.87L1381.37 682L1392.37 693.5H1496.87L1509.37 682L1522.37 693.5L1719.37 691.5V560H1614.87ZM1471.87 505V603.5H1483.37V505H1471.87ZM1422.37 506H1466.87V599.5L1454.87 623H1434.87L1422.37 599.5V506ZM1404.37 505H1414.87V603.5H1404.37V505ZM1284.87 550H1332.37V629H1284.87V550ZM1287.87 626H1328.87V553.5H1287.87V626ZM1746.37 347V414H1750.87L1756.87 409V352L1750.87 347H1746.37ZM1941.87 359.5H1971.37L1980.87 362.5V402H1953.37L1941.87 399.5V359.5ZM1956.37 362.5V399.5H1974.37V362.5H1956.37ZM689.868 448.5H697.368V414.5H689.868V448.5ZM689.868 362H697.368V328H689.868V362ZM178.368 429H185.368V354H178.368V429ZM1099.37 362H1106.87V328H1099.37V362ZM1426.62 160H1433.62V103H1426.62V160ZM1099.37 445H1106.87V411H1099.37V445ZM1651.37 261.5V254H1617.37V261.5H1651.37ZM1734.37 261.5V254H1700.37V261.5H1734.37ZM1651.37 506.5V499H1617.37V506.5H1651.37ZM1734.37 506.5V499H1700.37V506.5H1734.37ZM1737.37 356H1744.87V322H1737.37V356ZM1737.37 439H1744.87V405H1737.37V439Z" stroke="#010101"/>
</svg>
