<svg width="1507" height="880" viewBox="0 0 1507 880" fill="none" xmlns="http://www.w3.org/2000/svg">
<path d="M1261 416H1289V465.5H1261V416Z" fill="#656F7D"/>
<path d="M1290.5 465.5H1317V416H1290.5V465.5Z" fill="#666D7D"/>
<path d="M1244.5 416V465.5H1260V416H1244.5Z" fill="#656F7D"/>
<path d="M1244.5 416H1233.5V465.5H1244.5V416Z" fill="#656F7D"/>
<path d="M730 139.5L697.5 102.5V9.5H562.5V102.5L527.5 139.5V189.5H507.5V129.5H433.5V189.5H409.5V374.5V505.5V696.5H433.5V758.5H507.5V696.5H527.5V740.5L562.5 780.5V875H697.5V780.5L730 740.5V696.5H761.5V758.5H838.5V696.5H896.5L890.5 189.5H838.5V129.5H761.5V189.5H730V139.5Z" fill="#656F7D"/>
<path d="M409.5 374.5H332.5L306.5 400.5V479.5L332.5 505.5H409.5V374.5Z" fill="#219D23"/>
<path d="M801.5 261.5V625.5H527.5V261.5H801.5Z" fill="#219D23"/>
<path d="M408.5 269.5H252.5V239.5H408.5V269.5Z" fill="#555C67"/>
<path d="M245 243V265H1V243H245Z" fill="#555C67"/>
<path d="M1432.5 403.5V476.5C1435.33 478 1442.5 481.6 1448.5 484C1454.5 486.4 1468 486.5 1481.5 481C1491.5 475.333 1504.7 463.4 1505.5 449C1506.3 434.6 1505.17 427.667 1504.5 426C1503.83 423.5 1501.5 415.536 1494 407.5C1488.4 401.5 1477.83 398.167 1474.5 396.5C1463 393.5 1458.9 394.9 1444.5 396.5L1432.5 403.5Z" fill="#666D7D"/>
<path d="M1322 403.5V476.5H1432.5V403.5H1322Z" fill="#666D7D"/>
<path d="M1476.5 440.5C1476.5 446.575 1470.9 451.5 1464 451.5C1457.1 451.5 1451.5 446.575 1451.5 440.5C1451.5 434.425 1457.1 429.5 1464 429.5C1470.9 429.5 1476.5 434.425 1476.5 440.5Z" fill="#E53232"/>
<path d="M408 650.5H252V620.5H408V650.5Z" fill="#656F7D"/>
<path d="M244.5 624V646H0.5V624H244.5Z" fill="#656F7D"/>
<path fill-rule="evenodd" clip-rule="evenodd" d="M969 479H894.5V404H969V371H1030.5V365.5H1106.5V402.5H1120.5V366.25H1208.5V402.5H1218.5V415H1232.5V465H1218.5V479H1208.5V509.5H1120.5V479H1106.5V509.5H969V479Z" fill="#656F7D"/>
<path d="M1208.5 330L1193.5 312H1131.5L1120.5 330V366.25H1208.5V330Z" fill="#2DE923"/>
<path d="M1106.5 365.5H1109.5V323H1026.5V365.5H1030.5H1106.5Z" fill="#2DE923"/>
<path d="M1317.5 411.5H1325V377.5H1317.5V411.5Z" fill="#2DE923"/>
<path d="M1317.5 494.5H1325V460.5H1317.5V494.5Z" fill="#2DE923"/>
<path d="M404.5 652.5H412V618.5H404.5V652.5Z" fill="#2DE923"/>
<path d="M404.5 272H412V238H404.5V272Z" fill="#2DE923"/>
<path d="M890.5 411.5H898V377.5H890.5V411.5Z" fill="#2DE923"/>
<path d="M890.5 494.5H898V460.5H890.5V494.5Z" fill="#2DE923"/>
<path d="M567.5 0.5H688.5V18.5H567.5V0.5Z" fill="#2DE923"/>
<path d="M567.5 861.5H688.5V879.5H567.5V861.5Z" fill="#2DE923"/>
<path d="M1244.5 416H1233.5V465.5H1244.5M1244.5 416V465.5M1244.5 416H1260V465.5H1244.5M409.5 374.5V189.5H433.5V129.5H507.5V189.5H527.5V139.5L562.5 102.5V9.5H697.5V102.5L730 139.5V189.5H761.5V129.5H838.5V189.5H890.5L896.5 696.5H838.5V758.5H761.5V696.5H730V740.5L697.5 780.5V875H562.5V780.5L527.5 740.5V696.5H507.5V758.5H433.5V696.5H409.5V505.5M409.5 374.5H332.5L306.5 400.5V479.5L332.5 505.5H409.5M409.5 374.5V505.5M969 479H894.5V404H969V371H1030.5V365.5M969 479V509.5H1106.5V479M969 479H1106.5M1106.5 479H1120.5M1120.5 479V509.5H1208.5V479M1120.5 479H1208.5M1208.5 479H1218.5V465H1232.5V415H1218.5V402.5H1208.5V366.25M1106.5 365.5V402.5H1120.5V366.25M1106.5 365.5H1109.5V323H1026.5V365.5H1030.5M1106.5 365.5H1030.5M1120.5 366.25V330L1131.5 312H1193.5L1208.5 330V366.25M1120.5 366.25H1208.5M1432.5 476.5H1322V403.5H1432.5M1432.5 476.5V403.5M1432.5 476.5C1435.33 478 1442.5 481.6 1448.5 484C1454.5 486.4 1468 486.5 1481.5 481C1491.5 475.333 1504.7 463.4 1505.5 449C1506.3 434.6 1505.17 427.667 1504.5 426C1503.83 423.5 1501.5 415.536 1494 407.5C1488.4 401.5 1477.83 398.167 1474.5 396.5C1463 393.5 1458.9 394.9 1444.5 396.5L1432.5 403.5M1261 416H1289V465.5H1261V416ZM1290.5 465.5H1317V416H1290.5V465.5ZM801.5 261.5V625.5H527.5V261.5H801.5ZM408.5 269.5H252.5V239.5H408.5V269.5ZM245 243V265H1V243H245ZM408 650.5H252V620.5H408V650.5ZM244.5 624V646H0.5V624H244.5ZM1476.5 440.5C1476.5 446.575 1470.9 451.5 1464 451.5C1457.1 451.5 1451.5 446.575 1451.5 440.5C1451.5 434.425 1457.1 429.5 1464 429.5C1470.9 429.5 1476.5 434.425 1476.5 440.5ZM1317.5 411.5H1325V377.5H1317.5V411.5ZM1317.5 494.5H1325V460.5H1317.5V494.5ZM404.5 652.5H412V618.5H404.5V652.5ZM404.5 272H412V238H404.5V272ZM890.5 411.5H898V377.5H890.5V411.5ZM890.5 494.5H898V460.5H890.5V494.5ZM567.5 0.5H688.5V18.5H567.5V0.5ZM567.5 861.5H688.5V879.5H567.5V861.5Z" stroke="#010101"/>
</svg>
