<?xml version="1.0" encoding="UTF-8" standalone="no"?>
<!-- Created with Inkscape (http://www.inkscape.org/) -->

<svg
   width="25.272446mm"
   height="15.248899mm"
   viewBox="0 0 25.272445 15.248899"
   version="1.1"
   id="svg1"
   xml:space="preserve"
   inkscape:version="1.4.3 (0d15f75, 2025-12-25)"
   sodipodi:docname="fire-rate.svg"
   xmlns:inkscape="http://www.inkscape.org/namespaces/inkscape"
   xmlns:sodipodi="http://sodipodi.sourceforge.net/DTD/sodipodi-0.dtd"
   xmlns="http://www.w3.org/2000/svg"
   xmlns:svg="http://www.w3.org/2000/svg"><sodipodi:namedview
     id="namedview1"
     pagecolor="#ffffff"
     bordercolor="#000000"
     borderopacity="0.25"
     inkscape:showpageshadow="2"
     inkscape:pageopacity="0.0"
     inkscape:pagecheckerboard="0"
     inkscape:deskcolor="#d1d1d1"
     inkscape:document-units="mm"
     inkscape:zoom="8.3170034"
     inkscape:cx="17.013339"
     inkscape:cy="39.978341"
     inkscape:window-width="2560"
     inkscape:window-height="1369"
     inkscape:window-x="1072"
     inkscape:window-y="362"
     inkscape:window-maximized="1"
     inkscape:current-layer="layer1" /><defs
     id="defs1"><linearGradient
       id="swatch70"
       inkscape:swatch="solid"><stop
         style="stop-color:#000000;stop-opacity:1;"
         offset="0"
         id="stop70" /></linearGradient></defs><g
     inkscape:label="Layer 1"
     inkscape:groupmode="layer"
     id="layer1"
     transform="translate(-120.24453,-71.85488)"><path
       style="fill:#8dcbe6;fill-opacity:0.905882;fill-rule:evenodd;stroke:#000000;stroke-width:0.0382587;paint-order:stroke fill markers"
       d=""
       id="path10"
       transform="matrix(0.26458333,0,0,0.26458333,95.486268,132.42314)" /><path
       style="fill:#8dcbe6;fill-opacity:0.905882;fill-rule:evenodd;stroke:#000000;stroke-width:0.0382587;paint-order:stroke fill markers"
       d="m 85.33824,-20.998705 c 0,-0.05388 0.304405,-0.624815 0.323143,-0.606077 0.01107,0.01106 -0.003,0.07093 -0.03133,0.133039 -0.07675,0.168453 0.0011,0.229772 0.200261,0.157751 0.271884,-0.09831 0.198923,-0.01974 -0.150449,0.162023 -0.187893,0.09775 -0.341623,0.166721 -0.341623,0.153264 z"
       id="path11"
       transform="matrix(0.26458333,0,0,0.26458333,95.486268,132.42314)" /><path
       style="fill:#8dcbe6;fill-opacity:0.905882;fill-rule:evenodd;stroke:#000000;stroke-width:0.0382587;paint-order:stroke fill markers"
       d=""
       id="path12"
       transform="matrix(0.26458333,0,0,0.26458333,95.486268,132.42314)" /><path
       style="fill:#8dcbe6;fill-opacity:0.905882;fill-rule:evenodd;stroke:#000000;stroke-width:0.0382587;paint-order:stroke fill markers"
       d=""
       id="path13"
       transform="matrix(0.26458333,0,0,0.26458333,95.486268,132.42314)" /><path
       style="fill:#8dcbe6;fill-opacity:0.905882;fill-rule:evenodd;stroke:#000000;stroke-width:0.0382587;paint-order:stroke fill markers"
       d=""
       id="path14"
       transform="matrix(0.26458333,0,0,0.26458333,95.486268,132.42314)" /><path
       style="fill:#98d3ec;fill-opacity:0.933333"
       d="m 120.2479,86.911747 c 0,0 -0.061,-2.739775 0.3359,-4.612277 1.49179,-7.038464 8.15109,-11.603097 14.86167,-10.186957 1.92278,0.405766 3.99438,1.439788 5.43013,2.808879 2.41415,2.302067 2.72255,3.07009 3.17225,3.882192 1.03749,2.124024 1.1554,2.625869 1.28671,3.878568 0.12945,2.264123 -0.0203,4.248768 -0.0203,4.248768 l -0.63934,-0.0068 0.0882,-1.449994 c 0.37186,-6.110452 -4.18736,-11.628498 -9.54788,-12.694211 0,0 -0.35242,-0.169558 -1.83707,-0.259537 -1.03476,-0.0225 -2.00474,0.200581 -2.00474,0.200581 -5.15874,0.792133 -8.90776,4.653639 -10.02124,9.987618 -0.2162,1.035673 -0.26762,2.40798 -0.30915,3.050276 -0.0404,0.624187 -0.0392,1.17673 -0.0392,1.17673 z m 11.11848,-1.711628 c -0.69092,-0.690927 -0.25645,-1.282986 2.52677,-3.443235 4.26125,-3.307447 4.78358,-3.669986 4.93487,-3.425191 0.20088,0.325019 -6.2151,7.185926 -6.71991,7.185926 -0.23333,0 -0.5671,-0.142875 -0.74173,-0.3175 z"
       id="path74"
       sodipodi:nodetypes="cccsccccsccscssccccsc" /></g></svg>
