<?xml version="1.0" encoding="UTF-8" standalone="no"?>
<!-- Created with Inkscape (http://www.inkscape.org/) -->

<svg
   width="9.2620354mm"
   height="21.986319mm"
   viewBox="0 0 9.2620354 21.986319"
   version="1.1"
   id="svg1"
   xml:space="preserve"
   inkscape:version="1.4.3 (0d15f75, 2025-12-25)"
   sodipodi:docname="temperature-tolerance.svg"
   xmlns:inkscape="http://www.inkscape.org/namespaces/inkscape"
   xmlns:sodipodi="http://sodipodi.sourceforge.net/DTD/sodipodi-0.dtd"
   xmlns="http://www.w3.org/2000/svg"
   xmlns:svg="http://www.w3.org/2000/svg"><sodipodi:namedview
     id="namedview1"
     pagecolor="#ffffff"
     bordercolor="#000000"
     borderopacity="0.25"
     inkscape:showpageshadow="2"
     inkscape:pageopacity="0.0"
     inkscape:pagecheckerboard="0"
     inkscape:deskcolor="#d1d1d1"
     inkscape:document-units="mm"
     inkscape:zoom="2.9405047"
     inkscape:cx="-61.384019"
     inkscape:cy="-6.2914369"
     inkscape:window-width="2560"
     inkscape:window-height="1369"
     inkscape:window-x="1072"
     inkscape:window-y="362"
     inkscape:window-maximized="1"
     inkscape:current-layer="layer1" /><defs
     id="defs1" /><g
     inkscape:label="Layer 1"
     inkscape:groupmode="layer"
     id="layer1"
     transform="translate(-100.28357,-136.43166)"><path
       style="fill:#7c888f;stroke:none"
       d="m 105.16931,136.43478 c 2.0827,0.16828 2.81653,2.11397 2.89502,3.92676 0.12464,2.8786 -0.29777,6.84655 0.10821,9.7015 0.031,0.21798 0.61232,0.78549 0.98072,1.59671 0.35081,0.77248 0.49373,1.77041 0.36253,2.72459 -0.31477,2.28921 -2.54306,4.19193 -4.87304,4.03797 -4.49032,-0.29671 -4.777092,-3.20154 -4.07664,-6.20227 0.1723,-0.73814 0.80539,-1.54644 1.0408,-1.98693 0.14578,-0.27278 0.32585,-1.81605 0.36242,-2.46327 0.15605,-2.76144 -0.49489,-5.75523 -0.0862,-8.46519 0.25203,-1.6711 1.50719,-3.0136 3.28618,-2.86987 m -0.9887,1.11142 c -1.90866,0.78453 -1.38996,3.83575 -1.38998,5.46114 -2e-5,1.74422 0.0666,5.02109 0.062,6.64789 -0.001,0.3623 0.0104,0.89154 -0.0991,0.96879 -0.33153,0.23381 -0.95557,1.01588 -1.2463,1.53151 -0.16737,0.29684 -0.2836,0.87229 -0.26084,1.21138 0.0507,0.7553 -0.0105,1.00088 0.15129,1.56355 0.37375,1.29995 2.6017,3.10183 4.81457,2.27783 1.32922,-0.49496 2.21439,-1.67685 2.31401,-3.08984 0.0584,-0.82828 0.0115,-1.58903 -0.38763,-2.29579 -0.24232,-0.42912 -0.70567,-0.82493 -1.02202,-1.18666 -0.32523,-0.37189 -0.14228,-0.99022 -0.135,-1.49552 0.0259,-1.79876 0.015,-3.65761 0.0393,-5.50855 0.0179,-1.3659 0.12023,-2.72749 -0.0655,-4.05745 -0.18879,-1.35171 -1.2893,-2.63888 -2.77481,-2.02828 m 1.25585,2.81531 v 11.64167 c 0.36798,0.009 0.69497,0.11414 0.90669,0.27389 1.72539,1.30193 -0.0907,4.24317 -2.38768,3.25138 -1.60918,-0.69482 -0.91573,-3.27695 0.25465,-3.66531 0.12651,-0.0699 0.10729,-1.10424 0.13049,-2.33601 0.0234,-1.24149 0.0886,-2.68359 0.0664,-3.5411 -0.0498,-1.92201 -0.0289,-3.867 -0.0289,-5.62452 h 1.05833"
       id="path1"
       sodipodi:nodetypes="csssssssssccssssssssssssscccsscsscc" /><path
       style="fill:#8dcbe6;fill-opacity:0.905882;fill-rule:evenodd;stroke:#000000;stroke-width:0.216424;paint-order:stroke fill markers"
       d="m 393.00548,598.39389 c -11.33591,-1.6629 -15.70684,-8.68617 -13.17791,-21.17443 0.5765,-2.84685 1.16544,-4.26272 2.98225,-7.16963 1.53113,-2.4498 1.68858,-2.91691 2.19284,-6.50551 0.54223,-3.85883 0.69797,-9.94167 0.38173,-14.90922 -0.75677,-11.88744 -0.83981,-14.61112 -0.55868,-18.32397 0.31546,-4.16637 0.69143,-5.88502 1.77804,-8.12786 0.97186,-2.006 3.41554,-4.48785 5.28341,-5.36594 5.34811,-2.51417 11.45529,-0.43728 14.2276,4.83843 2.2079,4.20164 2.48719,7.23589 2.11796,23.0098 -0.27329,11.67532 -0.13453,18.89311 0.4203,21.86296 0.11987,0.64169 0.78821,1.92451 1.77696,3.41076 2.47695,3.72325 3.21182,5.81383 3.45933,9.84122 0.43924,7.14706 -3.51829,13.80369 -10.13812,17.05249 -3.41465,1.6758 -6.70466,2.1537 -10.74571,1.5609 z m 8.55199,-4.15819 c 5.88937,-2.25767 9.05264,-7.496 8.73171,-14.45957 -0.18912,-4.10331 -0.99957,-5.97683 -3.90088,-9.01767 -0.82024,-0.85969 -1.60692,-1.78643 -1.74817,-2.05942 -0.18077,-0.34936 -0.19631,-5.76185 -0.0525,-18.27582 0.21312,-18.54175 0.10826,-22.28388 -0.69696,-24.87104 -1.52487,-4.89943 -5.59397,-7.35264 -9.82124,-5.92112 -1.76805,0.59873 -3.65123,2.37382 -4.48178,4.22453 -1.36623,3.04436 -1.38375,3.40947 -1.15567,24.08137 0.11442,10.36955 0.16013,19.34068 0.10158,19.93584 -0.0904,0.91843 -0.31266,1.30038 -1.46955,2.52495 -3.96014,4.1918 -4.76076,6.33778 -4.38389,11.75064 0.19594,2.8143 0.28558,3.21719 1.06769,4.7987 0.88072,1.78094 2.97664,4.11317 4.8123,5.35487 1.27072,0.85956 3.62999,1.9344 5.2115,2.37428 2.04758,0.56951 5.68841,0.3635 7.78584,-0.44054 z"
       id="path2"
       transform="scale(0.26458333)" /><path
       style="fill:#8dcbe6;fill-opacity:0.905882;fill-rule:evenodd;stroke:#000000;stroke-width:0.216424;paint-order:stroke fill markers"
       d="m 394.69464,588.22544 c -3.11065,-0.68097 -4.94533,-2.73284 -5.19207,-5.80671 -0.23635,-2.94438 1.38044,-6.5114 3.56762,-7.87102 l 1.12291,-0.69804 0.19219,-2.44738 c 0.10571,-1.34605 0.21087,-10.61738 0.23368,-20.60295 0.0228,-9.98556 0.0579,-18.61547 0.078,-19.17758 l 0.0365,-1.022 h 1.80353 1.80354 v 21.97238 21.97239 l 0.98395,0.15734 c 4.98322,0.79685 6.66053,6.74812 3.05602,10.84307 -2.09896,2.38455 -4.77484,3.31777 -7.68592,2.6805 z"
       id="path3"
       transform="scale(0.26458333)" /></g></svg>
